<?xml version="1.0" encoding="UTF-8"?><svg id="a" xmlns="http://www.w3.org/2000/svg" viewBox="0 0 313.2 349.434"><defs><style>.b{fill:#fff;}.c{fill:#977eab;}.d{fill:#766295;}.e{fill:#ab98bd;}.f{fill:#ded6e7;}.g{fill:#c8bad4;}.h{fill:#977fab;}.i{fill:#e5dfed;}.j{fill:#86679b;}.k{fill:#a189b2;}.l{fill:#c3b5d0;}</style></defs><polygon class="b" points="71.17 9.513 265.573 6.267 296.235 75.517 305.973 122.358 305.973 214.99 290.284 280.564 268.102 329.325 254.377 340.618 88.483 344.613 80.685 322.764 85.778 305.992 107.675 245.939 107.675 168.573 99.844 79.846 71.17 9.513"/><g><path class="d" d="M144.305,331.708c-5.576,.017-11.135,0-16.695,0s-11.118,.017-16.694,0c-2.2,0-3.241-.773-3.241-2.368-.017-1.595,1.058-2.402,3.241-2.402,11.118-.017,22.254-.017,33.372,0,2.251,0,3.225,.756,3.225,2.385,0,1.663-.957,2.385-3.208,2.385Zm99.076-1.831c-.386,1.512-1.528,1.864-2.939,1.848-5.71-.034-11.421-.017-17.131-.017-5.442,0-10.883,.017-16.325,0-2.368,0-3.426-.756-3.393-2.435,.034-1.596,1.058-2.335,3.292-2.335,11.152-.017,22.304-.017,33.456,0,2.251,0,3.477,1.209,3.04,2.939Zm69.818-154.131c-.437-1.193-.101-2.435-.202-3.645v-8.834c-.017-9.809-.823-19.55-1.999-29.274-2.805-23.261-7.692-46.069-14.679-68.424-6.869-21.918-15.737-42.979-26.335-63.335-.47-.907-.957-1.78-1.931-2.234h-1.209c-.941,.336-1.881,.336-2.822,0h-.806c-1.344,.454-2.721,.084-4.081,.202h-5.307c-1.579,.084-3.158-.151-4.736,.134-5.29,.134-10.598,.302-15.905,.403-18.861,.386-37.739,.773-56.6,1.142-22.691,.454-45.381,.89-68.088,1.31-16.308,.319-32.633,.621-48.942,.941-.437,0-.941-.185-1.075-.034,57.188,114.158,59.523,229.139,6.92,345.329,.403,0,1.058,.017,1.713,0,9.12-.218,18.257-.437,27.393-.638,20.474-.42,40.947-.823,61.437-1.226,20.07-.403,40.141-.806,60.228-1.193,17.518-.336,35.052-.873,52.569-.806,4.921,.017,7.104-1.596,9.103-5.962,21.028-45.767,32.751-93.768,35.018-144.087,.252-.756,.067-1.528,.134-2.301,.101-.857-.235-1.73,.202-2.553v-1.209c-.437-1.041-.101-2.133-.202-3.191,.101-.957-.235-1.932,.202-2.855v-7.659Zm-10.984,.319c-1.193,47.262-11.941,92.257-32.314,134.934-.571,1.176-1.276,1.428-2.469,1.444-14.847,.269-29.677,.571-44.524,.857-15.838,.319-31.693,.437-47.531,.857-27.595,.756-55.189,1.041-82.767,1.814-1.864,.05-3.729,0-5.811,0,22.858-47.682,33.994-97.749,32.936-150.453-1.058-52.67-14.192-102.25-39.049-149.277,2.586,0,4.736,.034,6.852,0,18.811-.336,37.605-.672,56.416-1.041,19.331-.369,38.68-.756,58.011-1.142,19.735-.386,39.486-.773,59.22-1.209,1.444-.034,2.234,.319,2.956,1.68,15.25,28.972,25.982,59.523,32.18,91.669,4.468,23.094,6.5,46.389,5.895,69.869Z"/><path class="d" d="M0,95.532c13.024-.243,26.049-.451,39.071-.77,1.696-.042,2.395,.459,2.96,2.063,8.481,24.095,14.608,48.773,18.346,74.033,2.083,14.079,3.292,28.243,3.838,42.476,.554,14.453,.187,28.875-.993,43.268-2.499,30.479-8.733,60.188-18.897,89.051-.149,.422-.343,.828-.861,1.151,.475-2.935,.956-5.868,1.423-8.804,1.74-10.941,2.857-21.945,3.495-33.004,.542-9.394,.586-18.793,.391-28.194-.402-19.357-2.494-38.541-5.923-57.592-7.671-42.619-21.981-82.951-41.718-121.421-.33-.643-.753-1.238-1.132-1.855v-.403Z"/><path class="j" d="M313.2,175.747c-.798-1.138-.236-2.425-.399-3.632,.135-.177,.268-.176,.399,.004v3.628Z"/><path class="c" d="M313.2,189.452c-.839-.984-.207-2.144-.386-3.207,.12-.196,.248-.202,.386-.017v3.225Z"/><path class="g" d="M312.863,168.058c-.001-.937-.003-1.875-.004-2.812,.124-.162,.237-.147,.341,.021v2.822c-.13,.189-.242,.179-.337-.03Z"/><path class="j" d="M313.2,186.227c-.129,.003-.258,.009-.386,.017,.119-.948-.378-1.979,.386-2.839v2.822Z"/><path class="l" d="M312.863,193.101c-.008-.83-.37-1.708,.337-2.44v2.419c-.102,.175-.214,.174-.337,.021Z"/><path class="f" d="M312.863,193.101c.113,.003,.225-.004,.337-.021v2.419l-.168,.022-.169-.002v-2.417Z"/><path class="e" d="M312.863,168.058c.113,.003,.225,.013,.337,.03v2.015c-.134,.183-.265,.181-.392-.006l.055-2.039Z"/><path class="h" d="M312.808,170.097c.131,.006,.261,.008,.392,.006v2.015c-.133,0-.266,0-.399-.004,.002-.673,.005-1.345,.007-2.018Z"/><path class="i" d="M313.2,165.266c-.114-.009-.228-.016-.342-.02,.004-.67,.007-1.34,.01-2.011,.111-.003,.222,.002,.332,.016v2.015Z"/><path class="d" d="M55.195,344.613c3.87-11.64,7.388-23.378,10.154-35.338,3.586-15.504,6.138-31.167,7.703-47.007,1.72-17.411,2.19-34.856,1.382-52.313-2.214-47.787-12.981-93.632-31.719-137.625-3.048-7.157-6.316-14.214-9.747-21.196q-.988-2.01,1.141-2.065c10.139-.232,20.279-.441,30.416-.716,1.365-.037,2.107,.235,2.645,1.678,8.685,23.307,15.119,47.203,19.181,71.749,3.902,23.582,5.656,47.314,5.025,71.199-1.404,53.142-13.316,103.83-35.832,152.008-.338,.083-.55,.047-.349-.374Z"/><path class="k" d="M55.195,344.613l.349,.374c-.183,.545-.248,1.165-.952,1.449-.017-.71,.15-1.31,.603-1.823Z"/><path class="d" d="M185.359,176.433c.117-.255,.137-.416,.226-.476,3.834-2.606,4.496-6.32,4.217-10.674-.309-4.816-.229-9.673-.015-14.499,.143-3.23-2.44-3.766-4.412-2.67-1.222,.679-2.363,.781-3.679,.615,.066-.824,.813-1.022,1.287-1.397,4.37-3.456,8.764-6.882,13.168-10.294,.589-.456,1.235-1.308,2.049-.376,.643,.736,.401,1.59-.225,2.171-2.02,1.876-2.3,4.213-2.215,6.803,.129,3.958,.022,7.924,.046,11.886,.004,.64-.321,1.494,.35,1.867,.773,.431,1.53-.059,2.227-.52,5.092-3.369,10.183-6.74,15.301-10.071,2.305-1.5,4.67-2.907,7.005-4.361,1.868-1.163,2.019-1.939,.664-3.692-.532-.689-1.187-1.283-1.72-1.971-.431-.557-1.149-1.21-.525-1.924,.533-.61,1.284-.118,1.833,.224,1.366,.85,2.722,1.723,4.018,2.675,2.434,1.788,4.829,3.629,7.226,5.468,.47,.36,1.061,.781,.708,1.484-.372,.74-1.031,.393-1.596,.228-.996-.291-1.948-.373-2.906,.199-7.887,4.717-15.784,9.416-23.674,14.126-.219,.131-.395,.336-.816,.703,5.336,1.536,10.443,3.053,15.577,4.469,5.165,1.425,10.36,2.744,15.539,4.121,2.898,.771,4.051,2.472,3.789,5.495-.122,1.404-.102,2.827-.327,4.212-.46,2.833-1.43,3.62-4.327,3.625-14.708,.026-29.415,.056-44.123,.03-2.223-.004-4.315-.017-5.618,2.23-.501,.864-1.149,.447-1.663-.048-3.651-3.512-6.13-7.777-7.859-12.491-.441-1.204,.501-1.957,1.837-1.623,1.084,.271,1.641,1.14,2.187,1.973,2.117,3.228,4.916,4.685,8.935,4.628,13.295-.19,26.594-.081,39.891-.087,1.007,0,2.012,.016,2.998-.265,.532-.152,1.123-.271,1.178-.909,.057-.656-.556-.913-1.037-1.061-1.279-.395-2.598-.661-3.885-1.036-9.068-2.643-18.12-5.339-27.283-7.641-.989-.248-2.569-.881-2.855,.209-.382,1.456-.891,3.328,.607,4.696,1.383,1.264,2.799,2.493,4.437,3.948h-16.538Z"/><path class="d" d="M254.054,199.033c-.177,.275-.308,.505-.464,.718-3.529,4.82-7.142,9.572-11.879,13.306-2.41,1.9-2.434,1.845-4.465-.403-1.933-2.139-3.838-4.307-5.866-6.352-.916-.923-.751-1.41,.106-2.227,4.61-4.393,9.224-8.785,13.434-13.575,.354-.403,.617-.938,1.231-.269,2.493,2.717,5.008,5.413,7.505,8.126,.169,.183,.26,.437,.398,.676Z"/><path class="d" d="M254.374,129.782c.039,.664-.389,.94-.695,1.272-2.226,2.415-4.475,4.81-6.688,7.237-.619,.678-.981,1.039-1.813,.08-4.001-4.613-8.405-8.844-12.859-13.01-1.395-1.305-1.257-2.033-.01-3.258,2.054-2.017,4.061-4.113,5.836-6.372,1.166-1.484,2.08-1.206,3.301-.303,3.594,2.658,6.472,6.014,9.264,9.452,1.055,1.3,2.03,2.664,3.036,4.004,.239,.318,.457,.653,.628,.9Z"/><path class="d" d="M185.73,205.314c-.314,.359-.57,.666-.84,.959-2.229,2.42-4.521,4.784-6.662,7.279-.93,1.083-1.666,1.02-2.709,.294-3.402-2.369-6.104-5.441-8.715-8.6-1.324-1.602-2.516-3.315-3.834-4.922-.741-.904-.89-1.529,.064-2.486,2.321-2.328,4.493-4.804,6.715-7.229,.476-.52,.796-1.022,1.526-.162,4.177,4.922,8.952,9.265,13.517,13.812,.326,.325,.614,.688,.939,1.055Z"/><path class="d" d="M170.978,139.36c-2.665-2.893-5.29-5.751-7.929-8.596-.412-.444-.564-.791-.136-1.359,3.793-5.037,7.53-10.117,12.673-13.928,1.214-.9,2.124-1.193,3.301,.276,1.967,2.454,4.169,4.726,6.361,6.988,.862,.89,.802,1.372-.088,2.208-4.877,4.582-9.69,9.233-14.182,14.41Z"/><path class="d" d="M266.595,214.96c-3.101-5.368-6.071-10.532-9.073-15.677-.336-.575-.218-.952,.15-1.425,2.142-2.755,4.282-5.511,6.373-8.303,.576-.769,.923-.726,1.465,.009,2.627,3.565,5.271,7.118,7.946,10.647,.43,.566,.481,1.026,.158,1.627-2.306,4.292-4.598,8.592-7.019,13.123Z"/><path class="d" d="M151.843,140.397c-2.984-3.984-5.756-7.693-8.541-11.392-.419-.556-.731-1.009-.308-1.786,2.306-4.228,4.548-8.492,6.836-12.79,.718,.213,.84,.778,1.086,1.2,2.596,4.466,5.153,8.955,7.783,13.4,.579,.978,.715,1.673-.084,2.651-2.286,2.799-4.445,5.701-6.773,8.717Z"/><path class="d" d="M149.632,214.99c-1.969-3.674-3.643-7.249-5.739-10.557-1.56-2.462-1.483-4.234,.476-6.447,2.521-2.847,4.638-6.053,7.072-9.296,2.436,3.155,4.791,6.213,7.159,9.261,.461,.593,.249,1.101-.072,1.656-2.918,5.031-5.825,10.069-8.896,15.382Z"/><path class="d" d="M266.998,114.034c2.415,4.515,4.707,8.813,7.017,13.102,.324,.601,.293,1.061-.136,1.626-2.677,3.53-5.336,7.075-7.956,10.647-.685,.933-1.023,.614-1.576-.122-2.015-2.684-4.089-5.324-6.145-7.978-.375-.484-.691-.888-.28-1.589,3.011-5.145,5.977-10.317,9.077-15.686Z"/><path class="d" d="M160.821,171.12c2.901,5.574,5.572,10.748,8.296,15.894,.43,.812,.281,1.294-.341,1.896-2.363,2.286-4.714,4.587-6.991,6.959-.782,.814-1.123,.531-1.649-.201-2.271-3.158-4.575-6.292-6.881-9.425-.424-.576-.665-1.056-.224-1.8,2.558-4.306,5.062-8.643,7.79-13.323Z"/><path class="d" d="M255.801,157.91c-2.893-5.55-5.57-10.728-8.3-15.877-.43-.812-.283-1.289,.342-1.893,2.318-2.238,4.609-4.506,6.856-6.815,.734-.754,1.165-.841,1.829,.095,2.253,3.173,4.581,6.292,6.883,9.43,.359,.49,.689,.898,.273,1.598-2.597,4.372-5.145,8.772-7.884,13.462Z"/><path class="d" d="M205.283,114.696c-5.695,2.584-11.067,5.011-16.426,7.466-.63,.288-1.056,.307-1.559-.264-2.479-2.81-4.999-5.582-7.585-8.457,3.725-2.432,7.323-4.766,10.901-7.131,.631-.417,1.115-.502,1.803-.044,4.184,2.783,8.402,5.514,12.867,8.431Z"/><path class="d" d="M211.336,214.339c5.678-2.573,10.933-4.934,16.165-7.345,.847-.39,1.382-.41,2.055,.374,2.098,2.445,4.268,4.829,6.47,7.18,.759,.811,.676,1.238-.243,1.821-3.285,2.083-6.525,4.238-9.79,6.354-.423,.274-.793,.682-1.425,.265-4.294-2.834-8.609-5.634-13.231-8.65Z"/><path class="d" d="M211.757,114.657c4.533-2.972,8.742-5.713,12.926-8.493,.706-.469,1.185-.24,1.789,.159,3.191,2.108,6.389,4.208,9.623,6.249,.99,.625,1.077,1.082,.253,1.96-2.206,2.349-4.339,4.768-6.464,7.192-.511,.583-.929,.776-1.698,.421-5.353-2.472-10.728-4.896-16.429-7.487Z"/><path class="d" d="M255.395,171.086c2.73,4.669,5.245,9.007,7.809,13.315,.432,.726,.219,1.196-.211,1.776-2.314,3.12-4.631,6.24-6.881,9.406-.641,.903-1.031,.893-1.782,.115-2.233-2.315-4.533-4.566-6.835-6.812-.578-.564-.89-.998-.427-1.869,2.764-5.196,5.46-10.428,8.327-15.931Z"/><path class="d" d="M204.869,214.388c-4.63,3.023-8.886,5.783-13.116,8.584-.596,.395-.977,.154-1.437-.146-3.309-2.161-6.603-4.348-9.946-6.455-.995-.627-.837-1.057-.148-1.799,2.144-2.309,4.237-4.665,6.321-7.028,.572-.648,1.032-1.064,2.016-.605,5.268,2.458,10.572,4.839,16.309,7.449Z"/><path class="d" d="M161.221,157.941c-2.741-4.703-5.285-9.086-7.855-13.453-.395-.671-.102-1.123,.272-1.63,2.309-3.135,4.628-6.263,6.897-9.427,.571-.796,.941-.902,1.672-.147,2.289,2.365,4.649,4.66,6.987,6.976,.441,.437,.852,.817,.469,1.544-2.768,5.258-5.511,10.529-8.441,16.137Z"/><path class="d" d="M257.941,165.019c1.555-1.112,3.228-1.599,4.788-2.302,3.779-1.702,7.593-3.325,11.362-5.047,1.009-.461,1.615-.426,2.331,.545,1.865,2.532,3.834,4.991,5.828,7.425,.797,.972,.963,1.523-.364,2.214-3.024,1.576-5.963,3.314-8.929,4.999-.606,.345-1.116,.539-1.83,.102-4.33-2.649-8.694-5.242-13.185-7.937Z"/><path class="d" d="M160.149,164.894c-4.672,2.806-8.989,5.373-13.274,7.994-.758,.463-1.319,.332-2.014-.067-3.022-1.734-6.047-3.466-9.117-5.113-.973-.522-1.034-.923-.361-1.752,2.114-2.603,4.167-5.255,6.244-7.888,.42-.532,.747-1.003,1.634-.606,5.485,2.46,11.002,4.851,16.888,7.432Z"/><path class="d" d="M207.839,218.045c2.804,4.657,5.493,9.124,8.183,13.59,.328,.545,.109,1-.171,1.492-1.759,3.087-3.538,6.165-5.221,9.294-.553,1.028-.966,.935-1.763,.291-2.609-2.109-5.255-4.175-7.928-6.202-.726-.55-.831-1.032-.463-1.85,2.439-5.437,4.834-10.893,7.363-16.614Z"/><path class="d" d="M207.837,109.979c-2.555-5.78-4.916-11.183-7.344-16.555-.429-.949-.165-1.436,.58-2.004,2.615-1.995,5.226-3.999,7.759-6.096,.999-.827,1.394-.486,1.907,.456,1.637,3.003,3.323,5.979,5.017,8.951,.347,.609,.621,1.128,.189,1.836-2.647,4.342-5.265,8.702-8.107,13.412Z"/><path class="d" d="M251.066,226.797c-4.356,1.96-8.426,3.789-12.495,5.622q-4.122,1.857-7.046-1.469c-1.5-1.713-2.949-3.472-4.472-5.166-.618-.687-.516-1.062,.237-1.533,3.121-1.953,6.218-3.944,9.313-5.937,.576-.371,1.071-.397,1.658-.005,4.169,2.781,8.352,5.54,12.805,8.487Z"/><path class="d" d="M251.456,102.181c-3.452,2.3-6.86,4.219-9.842,6.661-2.759,2.259-4.946,2.233-7.613-.012-1.882-1.583-4.117-2.757-6.239-4.04-.876-.53-.895-.921-.234-1.667,2.223-2.511,4.392-5.071,6.564-7.627,.427-.502,.775-.774,1.508-.44,5.173,2.359,10.37,4.668,15.856,7.125Z"/><path class="d" d="M165.553,102.236c5.396-2.425,10.463-4.69,15.517-6.986,.753-.342,1.285-.405,1.896,.327,2.147,2.572,4.346,5.101,6.568,7.609,.654,.738,.601,1.11-.263,1.641-3.08,1.895-6.109,3.871-9.152,5.825-.512,.328-.941,.634-1.605,.188-4.216-2.831-8.459-5.622-12.962-8.604Z"/><path class="d" d="M165.145,226.848c4.403-2.919,8.482-5.601,12.531-8.327,.77-.518,1.37-.556,2.165-.033,2.962,1.947,5.95,3.857,8.967,5.717,.93,.573,.974,.97,.239,1.788-2.192,2.439-4.303,4.951-6.428,7.45-.47,.552-.851,.88-1.678,.501-5.156-2.359-10.342-4.654-15.796-7.095Z"/></g></svg>