<svg
    xmlns="http://www.w3.org/2000/svg"
    viewBox="0 0 65 70"
    id="vector">
    <path
        id="path"
        d="M 32.853 -0.002 C 14.709 -0.002 0.001 15.669 0.001 34.998 C 0.001 54.327 14.709 69.998 32.853 69.998 C 50.997 69.998 65.705 54.327 65.705 34.998 C 65.705 15.669 50.996 -0.002 32.853 -0.002 Z M 32.853 2.914 C 16.22 2.914 2.737 17.28 2.737 35.001 C 2.737 52.722 16.22 67.088 32.853 67.088 C 49.486 67.088 62.968 52.722 62.968 35.001 C 62.968 17.28 49.485 2.914 32.853 2.914 Z"
        fill="#544f55"
        stroke-width="1"
        fill-rule="evenodd"/>
    <path
        id="path_1"
        d="M 34.014 28.327 C 33.768 28.355 33.525 28.409 33.291 28.49 L 33.663 29.564 C 33.698 29.596 33.74 29.618 33.786 29.631 C 33.832 29.643 33.88 29.644 33.926 29.634 L 34.254 29.634 C 34.167 29.727 34.079 29.844 33.992 29.934 C 33.949 29.985 33.922 30.048 33.914 30.114 C 33.906 30.18 33.918 30.247 33.948 30.307 L 34.101 30.564 L 34.801 32.221 C 35.037 32.204 35.272 32.165 35.501 32.104 C 35.694 31.89 35.817 31.621 35.851 31.334 C 35.917 31.034 36.005 30.727 36.07 30.424 Q 36.63 31.124 36.924 31.474 C 37.145 31.45 37.365 31.412 37.581 31.358 L 36.333 29.794 L 35.939 29.864 C 35.813 29.887 35.689 29.918 35.567 29.957 C 35.495 30.055 35.443 30.166 35.413 30.284 C 35.361 30.394 35.332 30.513 35.326 30.634 C 35.333 30.657 35.348 30.676 35.368 30.689 C 35.388 30.702 35.411 30.707 35.435 30.704 L 35.235 31.568 L 34.797 30.494 L 34.819 30.471 L 34.687 30.214 L 34.644 30.121 C 34.622 30.082 34.61 30.038 34.61 29.992 C 34.61 29.947 34.622 29.903 34.644 29.864 C 34.833 29.647 35.038 29.444 35.257 29.257 C 35.607 28.957 35.826 28.744 35.936 28.627 L 35.936 28.581 L 35.236 28.581 C 35.192 28.627 35.148 28.674 35.105 28.721 C 34.886 28.581 34.688 28.464 34.469 28.321 C 34.298 28.35 34.145 28.306 34.014 28.327 Z M 34.473 29.427 L 34.233 28.843 C 34.319 28.868 34.4 28.908 34.473 28.96 C 34.599 29.016 34.735 29.047 34.873 29.053 Z M 35.963 36.544 L 36.094 37.477 C 36.226 37.501 36.357 37.547 36.488 37.571 C 36.626 37.59 36.765 37.597 36.904 37.594 L 37.604 37.477 C 37.509 37.391 37.406 37.313 37.298 37.244 C 37.191 37.175 37.072 37.127 36.947 37.104 C 36.911 37.114 36.875 37.122 36.838 37.127 C 36.805 37.146 36.766 37.155 36.728 37.151 C 36.719 37.152 36.71 37.151 36.702 37.146 C 36.695 37.142 36.689 37.135 36.685 37.127 L 36.619 36.684 C 36.619 36.68 36.62 36.676 36.622 36.673 C 36.623 36.669 36.626 36.666 36.63 36.664 C 36.633 36.662 36.637 36.661 36.641 36.661 C 36.765 36.647 36.891 36.655 37.013 36.684 C 37.188 36.707 37.298 36.731 37.363 36.731 L 37.407 36.731 C 37.27 36.535 37.069 36.393 36.838 36.331 C 36.76 36.306 36.675 36.306 36.597 36.331 L 36.509 35.747 L 36.487 35.747 L 36.487 35.724 C 36.711 35.765 36.94 35.773 37.166 35.747 L 37.298 35.701 C 37.212 35.619 37.116 35.549 37.013 35.491 C 36.922 35.427 36.816 35.387 36.706 35.374 C 36.605 35.397 36.501 35.397 36.4 35.374 L 36.29 34.931 L 36.334 34.931 L 36.29 34.814 C 36.256 34.706 36.245 34.593 36.256 34.481 C 36.268 34.369 36.302 34.26 36.356 34.161 C 36.487 33.974 36.619 33.811 36.75 33.624 C 36.643 33.586 36.533 33.555 36.422 33.531 C 36.326 33.489 36.22 33.472 36.115 33.484 C 36.115 33.484 36.049 33.577 35.94 33.741 C 35.877 33.848 35.796 33.943 35.699 34.021 C 35.573 34.016 35.449 33.985 35.335 33.928 C 35.222 33.872 35.122 33.792 35.042 33.694 C 34.813 33.536 34.631 33.318 34.516 33.064 C 34.472 32.928 34.472 32.78 34.516 32.644 C 34.521 32.565 34.535 32.486 34.56 32.411 C 34.56 32.407 34.56 32.403 34.558 32.399 C 34.556 32.395 34.553 32.392 34.55 32.39 C 34.546 32.388 34.542 32.387 34.538 32.387 L 34.472 32.411 C 34.371 32.631 34.311 32.869 34.297 33.111 C 34.251 33.342 34.251 33.58 34.297 33.811 C 34.341 33.929 34.415 34.033 34.511 34.115 C 34.607 34.196 34.722 34.252 34.845 34.277 C 35.086 34.324 35.327 34.371 35.568 34.441 L 35.611 34.464 C 35.588 34.548 35.588 34.637 35.611 34.721 L 35.655 34.861 L 35.633 34.861 L 35.743 35.397 C 35.748 35.419 35.758 35.44 35.773 35.456 C 35.789 35.473 35.808 35.485 35.83 35.491 C 35.873 35.503 35.911 35.527 35.94 35.561 C 35.894 35.6 35.843 35.631 35.787 35.654 L 35.896 36.191 L 35.918 36.377 C 35.962 36.424 36.006 36.448 36.027 36.471 C 36.012 36.499 35.99 36.523 35.963 36.541 Z M 38.263 44.991 L 38.395 44.244 L 37.059 44.011 L 35.745 42.541 L 35.591 43.451 L 36.375 44.265 L 35.389 44.755 L 35.236 45.665 L 36.944 44.755 Z M 38.044 35.564 C 37.975 35.5 37.893 35.452 37.803 35.424 C 37.693 35.591 37.633 35.785 37.628 35.984 C 37.76 36.1 37.847 36.17 37.913 36.241 C 37.838 36.422 37.78 36.609 37.738 36.8 C 37.784 36.876 37.855 36.933 37.938 36.964 C 38.047 37.034 38.138 37.081 38.179 37.104 L 38.379 36.52 C 38.313 36.474 38.269 36.427 38.204 36.38 C 38.148 36.347 38.102 36.299 38.072 36.241 C 38.105 36.069 38.164 35.904 38.247 35.75 C 38.197 35.67 38.127 35.605 38.043 35.561 Z M 31.844 27.116 C 32.207 27.116 32.558 26.983 32.83 26.743 C 33.093 26.51 33.487 26.09 34.013 25.506 C 33.714 25.512 33.417 25.567 33.136 25.67 Z M 38.375 36.331 C 38.432 36.396 38.5 36.451 38.575 36.494 C 38.692 36.37 38.775 36.217 38.816 36.051 C 38.767 35.987 38.708 35.931 38.641 35.887 C 38.583 35.828 38.516 35.781 38.441 35.747 C 38.383 35.798 38.337 35.862 38.309 35.934 C 38.267 35.998 38.237 36.069 38.222 36.144 C 38.257 36.218 38.31 36.282 38.375 36.331 Z M 23.635 22.05 C 23.719 22.01 23.807 21.978 23.898 21.956 C 23.92 22.026 23.964 22.073 23.986 22.143 C 23.994 22.176 24.01 22.206 24.033 22.231 C 24.056 22.255 24.085 22.273 24.117 22.283 C 24.149 22.304 24.186 22.316 24.224 22.32 C 24.262 22.324 24.3 22.319 24.336 22.306 C 24.402 22.26 24.467 22.236 24.536 22.19 C 24.618 22.295 24.675 22.36 24.69 22.377 C 24.775 22.401 24.864 22.409 24.952 22.4 C 25.04 22.409 25.13 22.401 25.215 22.376 C 25.35 22.339 25.476 22.275 25.587 22.19 C 25.697 22.096 25.787 22.026 25.894 21.933 L 27.602 22.933 L 27.756 23.049 C 27.789 23.073 27.829 23.085 27.87 23.08 C 27.911 23.076 27.948 23.057 27.975 23.026 C 28.037 22.979 28.104 22.94 28.175 22.909 L 28.722 24.146 C 28.753 24.154 28.785 24.154 28.816 24.146 C 28.847 24.137 28.875 24.121 28.898 24.099 C 28.943 24.064 28.995 24.04 29.051 24.029 L 29.204 24.146 L 29.904 24.823 C 30.057 24.776 30.167 24.753 30.233 24.729 C 30.22 24.847 30.198 24.964 30.167 25.079 L 30.517 25.429 L 31.017 26.013 C 31.052 26.028 31.089 26.036 31.127 26.036 C 31.242 25.994 31.352 25.939 31.455 25.873 C 31.569 25.812 31.673 25.733 31.762 25.639 L 32.287 25.009 L 33.032 24.939 C 32.987 24.794 32.95 24.646 32.922 24.496 C 32.872 24.362 32.864 24.215 32.901 24.076 C 32.929 24.016 32.966 23.962 33.01 23.913 L 33.01 23.866 C 32.742 23.892 32.478 23.947 32.222 24.029 C 32.2 24.121 32.2 24.217 32.222 24.309 C 32.121 24.503 31.995 24.683 31.849 24.846 C 31.649 25.126 31.499 25.289 31.433 25.383 C 31.429 25.391 31.423 25.397 31.415 25.401 C 31.407 25.406 31.398 25.407 31.389 25.406 L 31.127 25.106 L 31.148 25.082 L 30.995 24.919 C 30.956 24.891 30.919 24.86 30.886 24.826 C 30.973 24.802 31.039 24.779 31.105 24.756 C 31.181 24.736 31.25 24.696 31.305 24.639 C 31.359 24.567 31.395 24.482 31.411 24.393 C 31.426 24.304 31.419 24.212 31.392 24.126 C 31.359 23.95 31.275 23.788 31.151 23.659 C 31.078 23.575 30.987 23.508 30.885 23.464 C 30.782 23.419 30.671 23.398 30.56 23.402 C 30.355 23.458 30.157 23.536 29.969 23.635 C 30.078 23.706 30.144 23.752 30.144 23.752 C 30.212 23.822 30.263 23.907 30.294 24 C 30.324 24.093 30.333 24.192 30.319 24.289 L 29.794 23.799 L 29.815 23.776 L 29.684 23.682 C 29.632 23.627 29.596 23.559 29.58 23.485 C 29.565 23.41 29.57 23.333 29.596 23.262 C 29.623 23.104 29.683 22.953 29.772 22.819 C 29.785 22.803 29.794 22.784 29.797 22.763 C 29.801 22.743 29.8 22.722 29.794 22.702 C 29.778 22.661 29.746 22.628 29.706 22.609 C 29.581 22.524 29.439 22.468 29.29 22.445 C 29.138 22.422 28.982 22.422 28.83 22.445 C 28.735 22.466 28.646 22.506 28.567 22.562 C 28.494 22.61 28.412 22.642 28.326 22.655 L 28.041 22.445 L 27.954 22.399 L 27.822 22.305 L 27.801 22.329 L 27.669 22.259 C 27.837 22.173 27.986 22.054 28.107 21.909 C 28.167 21.782 28.212 21.647 28.239 21.509 C 28.252 21.442 28.244 21.373 28.216 21.31 C 28.189 21.248 28.143 21.195 28.085 21.159 C 27.848 21.067 27.588 21.05 27.341 21.112 C 27.087 21.155 26.842 21.242 26.618 21.369 C 26.567 21.417 26.522 21.472 26.486 21.532 L 26.311 21.416 L 26.333 21.369 L 25.133 20.902 C 24.953 21.025 24.785 21.165 24.633 21.322 C 24.786 21.392 24.939 21.486 25.115 21.556 C 25.195 21.596 25.265 21.652 25.322 21.721 C 25.378 21.79 25.42 21.87 25.443 21.956 C 25.114 21.941 24.79 21.878 24.479 21.77 C 24.292 21.708 24.125 21.594 23.998 21.443 C 23.927 21.371 23.877 21.28 23.854 21.181 C 23.831 21.083 23.835 20.979 23.866 20.883 C 23.876 20.801 23.903 20.721 23.944 20.649 C 23.986 20.577 24.041 20.514 24.107 20.463 C 24.219 20.378 24.336 20.3 24.458 20.23 C 24.528 20.189 24.595 20.142 24.658 20.09 L 24.658 20.043 L 24.592 20.02 C 24.312 20.109 24.051 20.252 23.825 20.44 C 23.592 20.613 23.41 20.847 23.3 21.116 C 23.243 21.256 23.231 21.41 23.267 21.557 C 23.303 21.704 23.385 21.835 23.5 21.933 C 23.539 21.977 23.583 22.017 23.632 22.05 Z M 29.067 22.866 C 29.092 22.878 29.113 22.897 29.128 22.92 C 29.143 22.943 29.151 22.97 29.152 22.997 C 29.153 23.025 29.146 23.052 29.133 23.076 L 29.067 23.193 C 29.023 23.136 28.986 23.073 28.957 23.006 C 28.937 22.933 28.908 22.862 28.87 22.796 C 28.94 22.799 29.008 22.823 29.064 22.866 Z M 26.92 21.513 C 26.95 21.487 26.985 21.47 27.023 21.461 C 27.062 21.453 27.101 21.455 27.139 21.466 C 27.229 21.462 27.319 21.478 27.402 21.513 C 27.436 21.531 27.464 21.558 27.483 21.591 C 27.503 21.624 27.513 21.662 27.512 21.7 C 27.528 21.778 27.52 21.859 27.49 21.933 C 27.446 22.003 27.359 21.98 27.205 21.886 C 27.127 21.837 27.059 21.774 27.005 21.7 C 26.969 21.686 26.94 21.659 26.924 21.624 C 26.908 21.589 26.905 21.55 26.917 21.513 Z M 27.687 20.276 L 27.994 20.766 C 28.181 20.746 28.361 20.683 28.519 20.58 L 28.191 20.043 C 28.121 20.072 28.047 20.088 27.972 20.09 C 27.909 20.118 27.839 20.126 27.772 20.113 C 27.647 19.978 27.55 19.819 27.487 19.646 C 27.315 19.692 27.147 19.754 26.987 19.833 C 27.057 20.026 27.169 20.202 27.316 20.346 C 27.44 20.329 27.563 20.306 27.684 20.276 Z M 35.068 27.113 C 35.062 27.308 35.069 27.503 35.09 27.697 C 35.265 27.767 35.374 27.79 35.418 27.814 C 35.393 28.002 35.408 28.193 35.462 28.374 C 35.535 28.417 35.618 28.441 35.703 28.444 C 35.797 28.461 35.892 28.468 35.988 28.467 L 35.966 27.883 C 35.848 27.821 35.723 27.774 35.593 27.744 C 35.545 27.569 35.538 27.385 35.572 27.207 C 35.401 27.188 35.232 27.157 35.065 27.113 Z M 24.292 22.423 C 24.236 22.452 24.178 22.476 24.117 22.493 C 24.004 22.383 23.908 22.258 23.832 22.12 C 23.748 22.149 23.667 22.188 23.591 22.236 C 23.509 22.267 23.435 22.315 23.372 22.376 C 23.471 22.524 23.589 22.659 23.723 22.776 C 23.854 22.729 23.964 22.683 24.029 22.659 L 24.358 23.059 C 24.402 23.036 24.489 23.012 24.599 22.966 C 24.673 22.942 24.742 22.902 24.799 22.849 L 24.449 22.406 C 24.443 22.353 24.399 22.376 24.289 22.423 Z M 29.375 58.406 L 28.018 56.329 L 27.448 56.772 L 29.069 59.293 L 30.887 57.962 L 30.58 57.496 Z M 31.806 53.435 C 31.584 53.442 31.366 53.495 31.166 53.592 C 30.966 53.688 30.789 53.826 30.646 53.996 C 30.481 54.157 30.349 54.349 30.259 54.561 C 30.168 54.773 30.121 55.001 30.12 55.232 C 30.105 55.646 30.255 56.049 30.536 56.352 C 30.669 56.497 30.832 56.612 31.013 56.688 C 31.195 56.765 31.39 56.802 31.587 56.796 C 31.808 56.784 32.024 56.729 32.224 56.633 C 32.423 56.536 32.601 56.402 32.748 56.236 C 33.077 55.917 33.266 55.48 33.274 55.022 C 33.286 54.819 33.256 54.615 33.188 54.423 C 33.119 54.232 33.013 54.056 32.875 53.906 C 32.747 53.747 32.583 53.621 32.396 53.539 C 32.209 53.457 32.005 53.421 31.801 53.435 Z M 32.306 55.769 C 32.227 55.861 32.13 55.935 32.02 55.987 C 31.911 56.038 31.792 56.066 31.671 56.069 C 31.552 56.068 31.434 56.042 31.325 55.994 C 31.216 55.946 31.117 55.876 31.036 55.789 C 30.944 55.703 30.873 55.598 30.827 55.481 C 30.782 55.364 30.763 55.238 30.773 55.113 C 30.777 54.985 30.806 54.86 30.858 54.744 C 30.911 54.627 30.986 54.523 31.08 54.436 C 31.182 54.309 31.32 54.216 31.476 54.168 C 31.632 54.12 31.798 54.12 31.954 54.168 C 32.11 54.216 32.248 54.309 32.35 54.436 C 32.439 54.524 32.509 54.629 32.555 54.746 C 32.6 54.863 32.62 54.988 32.613 55.113 C 32.596 55.362 32.486 55.597 32.305 55.769 Z M 24.206 30.497 L 12.66 30.497 L 12.66 32.271 L 24.202 32.271 L 24.202 30.497 Z M 25.191 58.033 L 25.41 61.323 L 26.089 60.973 L 26.024 60.319 L 27.184 59.713 L 27.644 60.156 L 28.344 59.806 L 25.935 57.636 Z M 25.98 59.759 L 25.87 58.499 L 26.79 59.363 Z M 33.47 50.169 L 33.864 51.615 L 32.464 51.825 L 32.135 52.385 L 34.566 54.042 L 34.938 53.412 L 33.427 52.362 L 34.61 52.199 L 34.676 52.105 L 34.325 50.869 L 35.836 51.919 L 36.231 51.265 L 33.821 49.609 Z M 11.192 37.006 L 11.192 35.28 L 23.983 35.28 L 23.983 33.833 L 11.148 33.833 L 11.148 32.033 C 10.264 34.665 9.812 37.423 9.812 40.2 C 9.812 40.691 9.834 41.157 9.856 41.647 L 9.856 41.811 C 9.9 42.581 9.988 43.351 10.097 44.097 L 11.061 43.117 L 12.178 44.354 L 10.491 46.081 C 10.747 47.193 11.084 48.285 11.499 49.348 L 17.128 43.631 Z M 35.392 49.724 C 35.544 49.791 35.708 49.823 35.874 49.818 C 36.03 49.817 36.185 49.794 36.334 49.748 C 36.474 49.696 36.607 49.626 36.728 49.538 C 36.835 49.45 36.938 49.356 37.035 49.257 C 37.132 49.137 37.242 49.027 37.363 48.931 C 37.504 48.825 37.636 48.708 37.758 48.581 C 37.88 48.459 37.99 48.325 38.086 48.181 C 38.19 48.043 38.278 47.895 38.349 47.738 L 38.108 46.991 L 38.042 47.014 C 38.039 47.117 38.017 47.219 37.977 47.314 C 37.886 47.588 37.719 47.831 37.495 48.014 C 37.521 47.67 37.436 47.327 37.254 47.034 C 37.091 46.763 36.845 46.55 36.554 46.427 C 36.374 46.358 36.181 46.329 35.988 46.341 C 35.795 46.353 35.607 46.406 35.437 46.497 C 35.038 46.707 34.739 47.067 34.605 47.497 C 34.43 47.931 34.43 48.417 34.605 48.851 C 34.67 49.043 34.773 49.219 34.909 49.369 C 35.044 49.52 35.209 49.641 35.393 49.725 Z M 35.129 47.741 C 35.203 47.501 35.368 47.3 35.589 47.181 C 35.697 47.125 35.815 47.094 35.936 47.09 C 36.057 47.086 36.178 47.109 36.289 47.157 C 36.403 47.198 36.506 47.263 36.593 47.347 C 36.679 47.432 36.746 47.534 36.789 47.647 C 36.877 47.888 36.877 48.153 36.789 48.394 C 36.759 48.516 36.703 48.63 36.623 48.727 C 36.543 48.824 36.443 48.901 36.329 48.954 C 36.225 49.012 36.108 49.042 35.989 49.042 C 35.871 49.042 35.754 49.012 35.65 48.954 C 35.536 48.913 35.432 48.849 35.346 48.764 C 35.26 48.679 35.193 48.577 35.15 48.464 C 35.098 48.351 35.069 48.229 35.066 48.105 C 35.062 47.981 35.084 47.857 35.13 47.742 Z M 32.458 16.052 C 29.884 16.051 27.331 16.517 24.923 17.428 C 29.455 18.962 33.386 21.895 36.148 25.802 C 38.91 29.709 40.363 34.393 40.298 39.177 L 34.253 39.177 C 34.253 30.123 27.267 22.772 18.638 22.772 C 17.978 22.771 17.32 22.818 16.667 22.912 C 15.439 24.186 14.358 25.595 13.447 27.112 L 14.717 27.112 L 14.717 28.839 L 20.631 28.839 L 20.631 27.139 L 22.668 27.139 L 22.668 28.839 L 25.756 28.839 L 25.756 33.833 L 25.735 33.833 L 25.735 36.773 L 21.635 41.347 L 19.535 43.657 L 21.635 45.757 L 26.035 50.214 L 28.135 48.044 L 24.499 44.357 L 25.638 43.12 L 26.799 44.31 L 28.004 43.074 L 26.755 41.72 L 27.894 40.484 L 30.128 42.84 L 30.128 42.864 L 30.347 43.05 L 27.982 45.501 L 29.252 46.807 L 29.274 46.807 L 29.602 47.157 L 30.413 47.997 L 30.391 47.997 L 30.435 48.044 L 26.908 51.708 L 26.076 52.641 L 21.63 48.161 L 18.345 44.847 L 18.323 44.824 L 12.213 51.054 C 12.413 51.474 12.607 51.871 12.826 52.268 L 18.345 46.294 L 21.63 49.864 L 24.258 52.688 L 13.075 52.688 C 14.024 54.36 15.171 55.911 16.491 57.308 L 16.513 57.331 L 16.601 57.425 L 16.623 57.425 C 17.039 57.798 17.455 58.218 17.981 58.685 C 21.817 62.297 26.882 64.324 32.151 64.355 L 32.479 64.355 C 35.497 64.351 38.482 63.716 41.24 62.489 L 50.154 25.129 C 48.118 22.34 45.457 20.065 42.384 18.489 C 39.312 16.913 35.912 16.079 32.459 16.053 Z M 31.998 58.965 L 34.166 63.025 C 33.75 63.325 33.312 63.609 32.852 63.889 C 26.259 64.239 20.937 60.808 18.2 58.405 C 17.827 58.078 17.477 57.751 17.17 57.471 C 17.643 57.518 18.118 57.542 18.594 57.541 C 27.223 57.541 34.21 50.191 34.21 41.141 L 40.233 41.141 C 40.253 44.534 39.526 47.891 38.103 50.971 C 36.68 54.052 34.596 56.782 31.999 58.966 Z M 18.353 42.465 L 21.638 38.801 L 23.259 37.001 L 13.425 37.001 L 18.331 42.485 Z M 21.463 37.728 L 21.134 38.128 L 18.353 41.228 L 15.221 37.728 L 21.463 37.728 Z"
        fill="#359c74"
        stroke-width="1"
        fill-rule="evenodd"/>
    <path
        id="path_2"
        d="M 42.248 15.026 C 42.283 14.881 42.262 14.728 42.189 14.599 C 42.115 14.469 41.996 14.371 41.854 14.326 L 36.226 12.832 C 36.131 12.811 36.033 12.815 35.941 12.844 C 35.848 12.873 35.765 12.926 35.7 12.998 C 35.635 13.07 35.589 13.157 35.569 13.252 C 35.534 13.397 35.555 13.55 35.628 13.679 C 35.702 13.809 35.821 13.907 35.963 13.952 L 41.591 15.446 C 41.686 15.467 41.784 15.463 41.876 15.434 C 41.969 15.405 42.052 15.352 42.117 15.28 C 42.182 15.208 42.228 15.121 42.248 15.026 Z M 48.687 10.476 L 31.911 5.622 C 26.811 4.245 21.595 7.862 20.303 13.299 L 18.354 20.23 L 18.661 20.346 C 18.661 20.346 19.449 17.686 19.668 17.126 C 21.289 13.066 24.618 6.742 32.502 9.099 L 46.607 13.229 C 52.739 14.979 53.681 19.203 52.564 23.893 L 41.875 66.9 C 40.758 71.59 55.585 22.82 55.585 22.82 C 56.875 17.383 53.791 11.852 48.687 10.476 Z"
        fill="#359c74"
        stroke-width="1"
        fill-rule="evenodd"/>
</svg>
